<?xml version="1.0" encoding="utf-8"?>
<!-- Generator: Adobe Illustrator 16.0.0, SVG Export Plug-In . SVG Version: 6.00 Build 0)  -->
<!DOCTYPE svg PUBLIC "-//W3C//DTD SVG 1.1//EN" "http://www.w3.org/Graphics/SVG/1.1/DTD/svg11.dtd">
<svg version="1.1" xmlns="http://www.w3.org/2000/svg" xmlns:xlink="http://www.w3.org/1999/xlink" x="0px" y="0px" width="300px"
	 height="76px" viewBox="0 0 300 76" style="enable-background:new 0 0 300 76;" xml:space="preserve">
<style type="text/css">
<![CDATA[
	.st0{fill:#F05A28;}
	.st1{fill-rule:evenodd;clip-rule:evenodd;fill:#EE5B29;}
	.st2{fill:#662D91;}
	.st3{fill-rule:evenodd;clip-rule:evenodd;fill:#662D91;}
]]>
</style>
<g id="MED">
	<g>
		<path class="st2" d="M79.1,7.6h10.6l7.5,15.8l7.5-15.8h10.6v30.3h-8.8V21.3L100.5,35H94l-6.1-13.7v16.6h-8.8V7.6z"/>
		<path class="st2" d="M120.1,7.6h25.7v7.6h-15.6v3.7h14.2v7.6h-14.2v3.8h16v7.6h-26V7.6z"/>
		<path class="st2" d="M172.3,9.4c2.5,1.2,4.4,3,5.8,5.3c1.4,2.3,2,5,2,8c0,3.1-0.7,5.7-2.1,8c-1.4,2.3-3.4,4-5.9,5.3
			c-2.6,1.3-5.5,1.9-8.9,1.9h-13.2V7.6h13.5C167,7.6,169.9,8.2,172.3,9.4z M168.3,28.1c1.1-1.3,1.6-3.1,1.6-5.3
			c0-2.3-0.6-4.1-1.8-5.4c-1.2-1.4-2.7-2-4.7-2h-3.3v14.8h3.8C165.7,30.1,167.2,29.5,168.3,28.1z"/>
	</g>
</g>
<g id="LABS">
	<g>
		<path class="st0" d="M182.5,7.6h10v22h12.6v8.4h-22.7V7.6z"/>
		<path class="st0" d="M229.7,37.9l-1.5-4.3h-11.4l-1.6,4.3h-10.3l12.8-30.3H228l12.3,30.3H229.7z M219.4,26.4h6.3l-3.1-8.9
			L219.4,26.4z"/>
		<path class="st0" d="M264.2,8.5c1.8,0.6,3.2,1.5,4.2,2.7c1,1.2,1.5,2.5,1.5,4c0,1.5-0.5,2.8-1.4,4c-0.9,1.2-2.2,2-3.7,2.5
			c1.8,0.4,3.3,1.3,4.4,2.7c1.1,1.4,1.6,3.1,1.6,5c0,1.7-0.5,3.2-1.5,4.5c-1,1.3-2.4,2.3-4.3,3c-1.8,0.7-4,1-6.4,1h-16.1V7.6h15.4
			C260.3,7.6,262.4,7.9,264.2,8.5z M259,18.7c0.4-0.4,0.6-0.9,0.6-1.6c0-0.6-0.2-1.1-0.6-1.5c-0.4-0.4-1-0.6-1.7-0.6h-4.8v4.3h4.8
			C258,19.3,258.5,19.1,259,18.7z M259.5,29.9c0.6-0.4,0.8-1,0.8-1.8c0-0.7-0.3-1.2-0.8-1.6c-0.6-0.4-1.3-0.6-2.2-0.6h-4.8v4.6h4.8
			C258.2,30.6,259,30.3,259.5,29.9z"/>
		<path class="st0" d="M290.7,15.6c-2-0.7-3.7-1.1-4.9-1.1c-1.2,0-1.9,0.4-1.9,1.3c0,0.7,0.4,1.2,1.2,1.6c0.8,0.4,2.1,0.8,3.8,1.3
			c2.2,0.6,4,1.2,5.4,1.8s2.7,1.6,3.7,2.9c1.1,1.3,1.6,3,1.6,5.2c0,2.2-0.6,4-1.7,5.5c-1.1,1.5-2.7,2.6-4.6,3.3
			c-1.9,0.7-4.1,1.1-6.4,1.1c-2.7,0-5.4-0.4-8.1-1.3s-5.1-2.1-7.1-3.6l3.7-7.6c1.5,1.3,3.4,2.5,5.8,3.4c2.3,0.9,4.2,1.4,5.8,1.4
			c0.8,0,1.3-0.1,1.8-0.4c0.4-0.3,0.6-0.7,0.6-1.3c0-0.7-0.4-1.2-1.2-1.6c-0.8-0.4-2.1-0.8-3.9-1.2c-2.1-0.5-3.9-1.1-5.3-1.7
			c-1.4-0.6-2.7-1.5-3.7-2.7c-1-1.2-1.6-2.9-1.6-5c0-2,0.5-3.8,1.6-5.3c1.1-1.5,2.6-2.7,4.5-3.5c2-0.8,4.2-1.2,6.8-1.2
			c2.4,0,4.7,0.3,7.1,1c2.4,0.7,4.4,1.5,6.1,2.6l-3.6,7.7C294.6,17.1,292.7,16.3,290.7,15.6z"/>
	</g>
</g>
<g id="URGENT_CARE">
	<g>
		<path class="st0" d="M85.2,61.6c0.8,0.8,1.8,1.2,3,1.2c1.2,0,2.2-0.4,2.9-1.2s1.1-1.9,1.1-3.2V45.9h5.6v12.4
			c0,1.8-0.4,3.4-1.2,4.8c-0.8,1.4-1.9,2.4-3.3,3.2c-1.4,0.7-3.1,1.1-5.1,1.1s-3.6-0.4-5.1-1.1c-1.5-0.7-2.6-1.8-3.4-3.2
			s-1.2-3-1.2-4.8V45.9H84v12.4C84,59.7,84.4,60.8,85.2,61.6z"/>
		<path class="st0" d="M114.6,67.1l-3.1-5.9h-0.1h-4v5.9h-5.6V45.9h9.6c2.8,0,5,0.6,6.5,1.9c1.5,1.3,2.3,3.1,2.3,5.5
			c0,1.6-0.3,3-1,4.1c-0.6,1.2-1.6,2.1-2.8,2.7l4.4,6.9H114.6z M107.4,56.8h4c1.1,0,2-0.3,2.6-0.8c0.6-0.6,0.9-1.4,0.9-2.4
			c0-1-0.3-1.8-0.9-2.4c-0.6-0.6-1.5-0.8-2.6-0.8h-4V56.8z"/>
		<path class="st0" d="M137.9,56.3h4.8v8.4c-1.1,0.8-2.5,1.5-4.2,2c-1.6,0.5-3.2,0.8-4.7,0.8c-2.1,0-4.1-0.5-5.8-1.4
			c-1.7-1-3.1-2.3-4.1-3.9c-1-1.7-1.5-3.5-1.5-5.6c0-2.1,0.5-3.9,1.5-5.6c1-1.7,2.4-3,4.2-3.9c1.8-0.9,3.8-1.4,6-1.4
			c1.6,0,3.2,0.3,4.7,0.9c1.6,0.6,2.9,1.3,4,2.3l-3.2,3.9c-0.8-0.7-1.7-1.3-2.7-1.7c-1-0.4-2-0.6-3-0.6c-1.1,0-2.2,0.3-3.1,0.8
			s-1.6,1.3-2.2,2.2c-0.5,0.9-0.8,2-0.8,3.2c0,1.2,0.3,2.3,0.8,3.2c0.5,1,1.3,1.7,2.2,2.2s2,0.8,3.1,0.8c1.1,0,2.3-0.3,3.7-1V56.3z"
			/>
		<path class="st0" d="M146.8,45.9h16.8v4.4h-11.2v4h10.1v4.4l-10.1,0v4h11.5v4.4h-17.1V45.9z"/>
		<path class="st0" d="M181.4,45.9h5.2v21.1h-4.9L172,54.4v12.6h-5.2V45.9h4.9l9.7,12.7L181.4,45.9z"/>
		<path class="st0" d="M189,45.9h18.2v4.6h-6.4v16.6h-5.6V50.5H189V45.9z"/>
		<path class="st0" d="M229.8,51c-1-0.5-1.9-0.8-2.8-0.8c-1.1,0-2,0.3-2.9,0.8c-0.9,0.5-1.6,1.3-2.1,2.2c-0.5,0.9-0.8,2-0.8,3.1
			c0,1.1,0.3,2.2,0.8,3.1s1.2,1.7,2.1,2.2c0.9,0.5,1.9,0.8,2.9,0.8c0.9,0,1.8-0.2,2.7-0.7c1-0.4,1.8-1,2.5-1.8l3.2,3.5
			c-1.2,1.2-2.5,2.2-4.1,2.9c-1.6,0.7-3.2,1.1-4.7,1.1c-2.1,0-4-0.5-5.7-1.4c-1.7-1-3-2.3-4-4c-1-1.7-1.5-3.5-1.5-5.6
			c0-2.1,0.5-3.9,1.5-5.5c1-1.6,2.4-2.9,4.1-3.9s3.7-1.4,5.8-1.4c1.6,0,3.1,0.3,4.7,1s2.8,1.5,3.9,2.7l-3.2,3.9
			C231.5,52.2,230.7,51.6,229.8,51z"/>
		<path class="st0" d="M253.5,67.1l-1.5-3.7h-9.2l-1.5,3.7h-5.7l9.1-21.1h5.7l8.9,21.1H253.5z M244.5,59.1h5.9l-2.9-7.5L244.5,59.1z
			"/>
		<path class="st0" d="M273.6,67.1l-3.1-5.9h-0.1h-4v5.9h-5.6V45.9h9.6c2.8,0,5,0.6,6.5,1.9c1.5,1.3,2.3,3.1,2.3,5.5
			c0,1.6-0.3,3-1,4.1c-0.6,1.2-1.6,2.1-2.8,2.7l4.4,6.9H273.6z M266.4,56.8h4c1.1,0,2-0.3,2.6-0.8c0.6-0.6,0.9-1.4,0.9-2.4
			c0-1-0.3-1.8-0.9-2.4c-0.6-0.6-1.5-0.8-2.6-0.8h-4V56.8z"/>
		<path class="st0" d="M282.8,45.9h16.8v4.4h-11.2v4h10.1v4.4l-10.1,0v4h11.5v4.4h-17.1V45.9z"/>
	</g>
</g>
<g id="Layer_1_xA0_Image_1_">
</g>
<g id="Layer_2_xA0_Image_1_">
	<g>
		<polygon class="st1" points="33,1.6 49,10.8 63.6,19.3 58.4,22.3 33,7.6 6.3,23 6.3,53.9 33,69.3 59.7,53.9 59.7,32.2 64.9,29.1 
			64.9,38.5 64.9,56.9 49,66.1 33,75.4 17,66.1 1.1,56.9 1.1,38.5 1.1,20 17,10.8 		"/>
		<polygon class="st3" points="32,37.5 49.1,27.6 33,18.3 15.5,28.4 15.5,48.6 33,58.7 50.5,48.6 50.5,37.5 32,48.2 19.2,40.8 
			23.8,32.7 		"/>
	</g>
</g>
</svg>
